<svg xmlns="http://www.w3.org/2000/svg" viewBox="0 0 64 64">
  <defs>
    <linearGradient id="drop" x1="16" x2="50" y1="10" y2="56">
      <stop offset="0%" stop-color="#7ee7df"/>
      <stop offset="52%" stop-color="#2e9a90"/>
      <stop offset="100%" stop-color="#185f73"/>
    </linearGradient>
  </defs>
  <rect width="64" height="64" rx="16" fill="#eef8f8"/>
  <path d="M32 6 52 14v16c0 13.8-8.3 24.5-20 28C20.3 54.5 12 43.8 12 30V14L32 6Z" fill="#fff" stroke="#185f73" stroke-opacity=".22" stroke-width="2"/>
  <path d="M32 15c7.6 8 12 14.6 12 22.1 0 7-5.3 12.4-12 12.4s-12-5.4-12-12.4C20 29.6 24.4 23 32 15Z" fill="url(#drop)"/>
  <path d="M21 38c3.2-2.3 6.4-2.3 9.6 0 3.5 2.5 7 2.3 10.4-.2" fill="none" stroke="#f6fbfb" stroke-linecap="round" stroke-width="4"/>
  <circle cx="41" cy="24" r="3.2" fill="#f6c56b"/>
</svg>
